<svg xmlns="http://www.w3.org/2000/svg" viewBox="0 0 300 16.53"><title>tsmp-logo-desc</title><g id="Layer_2" data-name="Layer 2"><g id="Layer_1-2" data-name="Layer 1"><polygon points="0 0.23 0 16.35 9.57 16.35 9.57 14.25 2.31 14.25 2.31 0.23 0 0.23" style="fill:#fff"/><path d="M22.38.14H24l7.23,16.21H28.87l-2.15-4.77H19.84l-2,4.77H15.45Zm3.39,9.38-2.6-5.84L20.76,9.52Z" style="fill:#fff"/><polygon points="57.29 0.23 59.59 0.23 53.07 16.42 52.56 16.42 47.29 3.31 41.97 16.42 41.47 16.42 34.98 0.23 37.3 0.23 41.74 11.34 46.22 0.23 48.4 0.23 52.89 11.34 57.29 0.23" style="fill:#fff"/><path d="M93.13,12.61v2.54a12,12,0,0,1-5.86,1.38,9,9,0,0,1-4.59-1.09,8,8,0,0,1-3-3,8.1,8.1,0,0,1-1.1-4.12,7.86,7.86,0,0,1,2.51-5.92A8.6,8.6,0,0,1,87.32,0,14.49,14.49,0,0,1,93,1.35V3.83a11.11,11.11,0,0,0-5.53-1.62A6.39,6.39,0,0,0,82.83,4,5.8,5.8,0,0,0,81,8.34a5.74,5.74,0,0,0,1.8,4.36,6.42,6.42,0,0,0,4.61,1.71,10.45,10.45,0,0,0,5.72-1.8" style="fill:#fff"/><path d="M109.53,0a8.67,8.67,0,0,1,6.22,2.36,7.85,7.85,0,0,1,2.49,5.93,7.74,7.74,0,0,1-2.51,5.9,8.93,8.93,0,0,1-6.33,2.33,8.43,8.43,0,0,1-6.07-2.33,7.81,7.81,0,0,1-2.43-5.86,8,8,0,0,1,2.44-6A8.55,8.55,0,0,1,109.53,0m.09,2.19a6.26,6.26,0,0,0-4.55,1.73,5.9,5.9,0,0,0-1.78,4.42,5.77,5.77,0,0,0,1.79,4.34,6.63,6.63,0,0,0,9,0,5.89,5.89,0,0,0,1.8-4.4,5.76,5.76,0,0,0-1.8-4.31,6.13,6.13,0,0,0-4.43-1.75" style="fill:#fff"/><path d="M126.79,16.35V.23h4a5.83,5.83,0,0,1,3.88,1.21,4.07,4.07,0,0,1,1.44,3.28,4.21,4.21,0,0,1-.71,2.44,4.19,4.19,0,0,1-2,1.53,7.42,7.42,0,0,1,1.51,1.38A29.16,29.16,0,0,1,137,13.13q.84,1.38,1.35,2.07l.85,1.15h-2.74l-.71-1.06-.13-.19-.45-.64-.72-1.18L133.69,12a11.42,11.42,0,0,0-1.31-1.58,4.83,4.83,0,0,0-1.07-.85,3.6,3.6,0,0,0-1.61-.26h-.6v7Zm3-14.16h-.69V7.28H130a6.47,6.47,0,0,0,2.41-.3,2.25,2.25,0,0,0,1-.91,2.55,2.55,0,0,0,.37-1.37,2.4,2.4,0,0,0-.41-1.38,2.12,2.12,0,0,0-1.13-.87,8.19,8.19,0,0,0-2.43-.26" style="fill:#fff"/><path d="M146.52,16.35V.21h5.1a5.29,5.29,0,0,1,3.69,1.25,4.34,4.34,0,0,1,1.37,3.35,4.56,4.56,0,0,1-.7,2.49,4,4,0,0,1-1.94,1.57,9.74,9.74,0,0,1-3.51.49h-1.7v7Zm4.71-14.09h-2.39v5h2.53a3.21,3.21,0,0,0,2.17-.66,2.41,2.41,0,0,0,.76-1.9c0-1.65-1-2.48-3.07-2.48" style="fill:#fff"/><path d="M172.26,0a8.69,8.69,0,0,1,6.22,2.36A7.84,7.84,0,0,1,181,8.3a7.71,7.71,0,0,1-2.51,5.9,8.9,8.9,0,0,1-6.32,2.33,8.41,8.41,0,0,1-6.07-2.33,7.77,7.77,0,0,1-2.43-5.86,8,8,0,0,1,2.43-6A8.57,8.57,0,0,1,172.26,0m.09,2.19a6.25,6.25,0,0,0-4.55,1.73A5.86,5.86,0,0,0,166,8.34a5.77,5.77,0,0,0,1.78,4.34,6.64,6.64,0,0,0,9,0,5.91,5.91,0,0,0,1.81-4.4,5.78,5.78,0,0,0-1.81-4.31,6.14,6.14,0,0,0-4.43-1.75" style="fill:#fff"/><path d="M189.52,16.35V.23h4a5.84,5.84,0,0,1,3.88,1.21,4.07,4.07,0,0,1,1.44,3.28,4.17,4.17,0,0,1-.71,2.44,4.17,4.17,0,0,1-2,1.53,7.24,7.24,0,0,1,1.51,1.38,28.47,28.47,0,0,1,2.08,3.06c.56.92,1,1.61,1.35,2.07l.85,1.15H199.2l-.71-1.06a1.5,1.5,0,0,0-.14-.19l-.45-.64-.72-1.18L196.42,12a12.2,12.2,0,0,0-1.31-1.58A5,5,0,0,0,194,9.6a3.59,3.59,0,0,0-1.61-.26h-.6v7Zm3-14.16h-.69V7.28h.88a6.5,6.5,0,0,0,2.41-.3,2.26,2.26,0,0,0,1-.91,2.62,2.62,0,0,0,.36-1.37,2.47,2.47,0,0,0-.41-1.38,2.15,2.15,0,0,0-1.14-.87,8.17,8.17,0,0,0-2.43-.26" style="fill:#fff"/><path d="M214.52.14h1.63l7.23,16.21H221l-2.15-4.77H212l-2,4.77h-2.38Zm3.4,9.38-2.61-5.84L212.9,9.52Z" style="fill:#fff"/><polygon points="227.04 0.2 240.51 0.2 240.51 2.26 234.89 2.26 234.89 16.35 232.57 16.35 232.57 2.26 227.04 2.26 227.04 0.2" style="fill:#fff"/><rect x="248.36" y="0.23" width="2.31" height="16.12" style="fill:#fff"/><path d="M267.81,0A8.68,8.68,0,0,1,274,2.36a7.85,7.85,0,0,1,2.48,5.93A7.73,7.73,0,0,1,274,14.2a8.92,8.92,0,0,1-6.32,2.33,8.42,8.42,0,0,1-6.07-2.33,7.79,7.79,0,0,1-2.43-5.86,8,8,0,0,1,2.44-6A8.55,8.55,0,0,1,267.81,0m.09,2.19a6.25,6.25,0,0,0-4.55,1.73,5.86,5.86,0,0,0-1.78,4.42,5.78,5.78,0,0,0,1.78,4.34,6.64,6.64,0,0,0,9,0,5.91,5.91,0,0,0,1.81-4.4,5.78,5.78,0,0,0-1.81-4.31,6.14,6.14,0,0,0-4.43-1.75" style="fill:#fff"/><polygon points="297.81 0.23 300 0.23 300 16.35 298.01 16.35 287.24 3.93 287.24 16.35 285.07 16.35 285.07 0.23 286.94 0.23 297.81 12.75 297.81 0.23" style="fill:#fff"/></g></g></svg>