<svg xmlns="http://www.w3.org/2000/svg" xmlns:xlink="http://www.w3.org/1999/xlink" viewBox="0 0 218.63 110.84"><defs><style>.cls-1,.cls-2{fill:#fff9f0;}.cls-2{font-size:14px;font-family:Lato-Bold, Lato;font-weight:700;letter-spacing:0.32em;}.cls-3{letter-spacing:0.29em;}.cls-4{letter-spacing:0.25em;}.cls-5{letter-spacing:0.32em;}.cls-6,.cls-7,.cls-8{fill:none;stroke:#fff9f0;stroke-miterlimit:10;}.cls-7{stroke-width:2px;}.cls-8{stroke-width:1.5px;}</style><symbol id="Leaf" data-name="Leaf" viewBox="0 0 4.78 4.57"><path class="cls-1" d="M3.85,1.4c.74.84,1.25,2.33.69,2.91s-2.27.08-3.16-.81A4.52,4.52,0,0,1,.46,2C.12,1.15-.16.52.11.2c.38-.47,1.67,0,2.1.19A3.78,3.78,0,0,1,3.85,1.4Z"/></symbol></defs><title>logo</title><g id="Layer_2" data-name="Layer 2"><g id="Layer_1-2" data-name="Layer 1"><text class="cls-2" transform="translate(0 108.32)">FM &amp; CO A<tspan class="cls-3" x="109.82" y="0">DV</tspan><tspan x="138.4" y="0">OC</tspan><tspan class="cls-4" x="167.94" y="0">A</tspan><tspan class="cls-5" x="181.33" y="0">TES</tspan></text><path class="cls-6" d="M68.89,29.35a39,39,0,0,0-.06,8.28,39.86,39.86,0,0,0,3.72,13.11,47.51,47.51,0,0,0,9.71,14c7.26,7.07,16.47,11,23.35,14,.4.17,1.55.65,3.07,1.43a47,47,0,0,1,7.43,4.76"/><use width="4.78" height="4.57" transform="translate(63.37 30) rotate(-9.08)" xlink:href="#Leaf"/><use width="4.78" height="4.57" transform="matrix(-0.99, -0.14, -0.14, 0.99, 73.9, 29.84)" xlink:href="#Leaf"/><use width="4.78" height="4.57" transform="translate(63.22 36.79) rotate(-20.94)" xlink:href="#Leaf"/><use width="4.78" height="4.57" transform="matrix(-1, 0.06, 0.06, 1, 73.5, 34.47)" xlink:href="#Leaf"/><use width="4.78" height="4.57" transform="translate(64.4 43.49) rotate(-24.73)" xlink:href="#Leaf"/><use width="4.78" height="4.57" transform="matrix(-0.99, 0.13, 0.13, 0.99, 74.5, 40.5)" xlink:href="#Leaf"/><use width="4.78" height="4.57" transform="translate(66.69 50.78) rotate(-33.42)" xlink:href="#Leaf"/><use width="4.78" height="4.57" transform="matrix(-0.96, 0.28, 0.28, 0.96, 76.23, 46.3)" xlink:href="#Leaf"/><use width="4.78" height="4.57" transform="translate(70.02 57.73) rotate(-44.56)" xlink:href="#Leaf"/><use width="4.78" height="4.57" transform="matrix(-0.89, 0.46, 0.46, 0.89, 78.51, 51.5)" xlink:href="#Leaf"/><use width="4.78" height="4.57" transform="translate(73.93 64.05) rotate(-53.38)" xlink:href="#Leaf"/><use width="4.78" height="4.57" transform="matrix(-0.72, 0.69, 0.69, 0.72, 81.06, 56.53)" xlink:href="#Leaf"/><use width="4.78" height="4.57" transform="translate(78.47 68.82) rotate(-57.68)" xlink:href="#Leaf"/><use width="4.78" height="4.57" transform="matrix(-0.67, 0.74, 0.74, 0.67, 85.02, 60.78)" xlink:href="#Leaf"/><use width="4.78" height="4.57" transform="translate(84.25 73.46) rotate(-65.56)" xlink:href="#Leaf"/><use width="4.78" height="4.57" transform="matrix(-0.67, 0.74, 0.74, 0.67, 90.36, 65.02)" xlink:href="#Leaf"/><use width="4.78" height="4.57" transform="translate(89.34 76.49) rotate(-65.56)" xlink:href="#Leaf"/><use width="4.78" height="4.57" transform="matrix(-0.56, 0.83, 0.83, 0.56, 93.96, 67.51)" xlink:href="#Leaf"/><use width="4.78" height="4.57" transform="matrix(-0.8, 0.6, 0.6, 0.8, 69.89, 23.46)" xlink:href="#Leaf"/><use width="4.78" height="4.57" transform="translate(95.17 80.05) rotate(-74.58)" xlink:href="#Leaf"/><use width="4.78" height="4.57" transform="matrix(-0.42, 0.91, 0.91, 0.42, 98.33, 70.46)" xlink:href="#Leaf"/><path class="cls-6" d="M149.74,29.35a39,39,0,0,1,.06,8.28,39.86,39.86,0,0,1-3.72,13.11,47.51,47.51,0,0,1-9.71,14c-7.27,7.07-16.47,11-23.35,14-.4.17-1.55.65-3.07,1.43a47,47,0,0,0-7.43,4.76"/><use width="4.78" height="4.57" transform="matrix(-0.99, -0.16, -0.16, 0.99, 155.26, 30)" xlink:href="#Leaf"/><use width="4.78" height="4.57" transform="translate(144.73 29.84) rotate(-8.14)" xlink:href="#Leaf"/><use width="4.78" height="4.57" transform="matrix(-0.93, -0.36, -0.36, 0.93, 155.41, 36.79)" xlink:href="#Leaf"/><use width="4.78" height="4.57" transform="matrix(1, 0.06, -0.06, 1, 145.13, 34.47)" xlink:href="#Leaf"/><use width="4.78" height="4.57" transform="matrix(-0.91, -0.42, -0.42, 0.91, 154.23, 43.49)" xlink:href="#Leaf"/><use width="4.78" height="4.57" transform="translate(144.13 40.5) rotate(7.51)" xlink:href="#Leaf"/><use width="4.78" height="4.57" transform="matrix(-0.83, -0.55, -0.55, 0.83, 151.94, 50.78)" xlink:href="#Leaf"/><use width="4.78" height="4.57" transform="matrix(0.96, 0.28, -0.28, 0.96, 142.4, 46.3)" xlink:href="#Leaf"/><use width="4.78" height="4.57" transform="matrix(-0.71, -0.7, -0.7, 0.71, 148.61, 57.73)" xlink:href="#Leaf"/><use width="4.78" height="4.57" transform="translate(140.12 51.5) rotate(27.34)" xlink:href="#Leaf"/><use width="4.78" height="4.57" transform="matrix(-0.6, -0.8, -0.8, 0.6, 144.7, 64.05)" xlink:href="#Leaf"/><use width="4.78" height="4.57" transform="translate(137.57 56.53) rotate(43.83)" xlink:href="#Leaf"/><use width="4.78" height="4.57" transform="matrix(-0.53, -0.85, -0.85, 0.53, 140.16, 68.82)" xlink:href="#Leaf"/><use width="4.78" height="4.57" transform="translate(133.61 60.78) rotate(48.13)" xlink:href="#Leaf"/><use width="4.78" height="4.57" transform="matrix(-0.41, -0.91, -0.91, 0.41, 134.38, 73.46)" xlink:href="#Leaf"/><use width="4.78" height="4.57" transform="translate(128.27 65.02) rotate(48.13)" xlink:href="#Leaf"/><use width="4.78" height="4.57" transform="matrix(-0.41, -0.91, -0.91, 0.41, 129.29, 76.49)" xlink:href="#Leaf"/><use width="4.78" height="4.57" transform="translate(124.67 67.51) rotate(55.91)" xlink:href="#Leaf"/><use width="4.78" height="4.57" transform="matrix(0.8, 0.6, -0.6, 0.8, 148.74, 23.46)" xlink:href="#Leaf"/><use width="4.78" height="4.57" transform="matrix(-0.27, -0.96, -0.96, 0.27, 123.46, 80.05)" xlink:href="#Leaf"/><use width="4.78" height="4.57" transform="translate(120.3 70.46) rotate(64.93)" xlink:href="#Leaf"/><line class="cls-7" x1="93.27" y1="12.03" x2="125.26" y2="12.03"/><line class="cls-8" x1="108.81" y1="13.01" x2="108.81"/><polygon class="cls-6" points="123.84 13.01 114.91 35.54 132.77 35.54 123.84 13.01"/><path class="cls-1" d="M133.52,36c0,4.59-4.33,8.31-9.68,8.31s-9.68-3.72-9.68-8.31"/><polygon class="cls-6" points="94.93 13.01 86 35.54 103.86 35.54 94.93 13.01"/><path class="cls-1" d="M104.61,36c0,4.59-4.33,8.31-9.68,8.31S85.26,40.6,85.26,36"/></g></g></svg>