<?xml version="1.0" encoding="utf-8"?>
<!-- Generator: Adobe Illustrator 23.0.3, SVG Export Plug-In . SVG Version: 6.00 Build 0)  -->
<svg version="1.1" id="Layer_1" xmlns="http://www.w3.org/2000/svg" xmlns:xlink="http://www.w3.org/1999/xlink" x="0px" y="0px"
	 width="300px" height="120px" viewBox="0 0 300 120" style="enable-background:new 0 0 300 120;" xml:space="preserve">
<style type="text/css">
	.st0{fill:#FFFFFF;}
</style>
<g>
	<path class="st0" d="M82.4,11.3c2.6,0,5,0,7.4,0c0.2,0,0.5,0.3,0.6,0.6c1.4,4.3,2.8,8.6,4.2,12.9c1.4,4.4,2.9,8.8,4.3,13.2
		c1.5,4.8,3.1,9.5,4.6,14.3c0.7,2.3,1.5,4.7,2.3,7.2c0.5-1.4,0.9-2.6,1.3-3.8c2.4-7.2,4.7-14.4,7.1-21.5c1.4-4.4,2.9-8.8,4.3-13.1
		c1-3,2-6,3-9c0.2-0.6,0.4-0.7,0.9-0.7c1.9,0,3.7,0,5.6,0c0.5,0,0.7,0.1,0.9,0.6c1.6,5,3.3,10,5,15.1c1.9,5.8,3.8,11.6,5.7,17.4
		c1.6,4.8,3.2,9.6,4.8,14.4c0,0.1,0.1,0.3,0.2,0.4c1.1-3.3,2.1-6.5,3.2-9.8c1.7-5.1,3.3-10.2,5-15.3c2.3-7.3,4.7-14.6,7-21.9
		c0.2-0.7,0.6-0.9,1.3-0.9c2.2,0.1,4.3,0,6.6,0c-6.8,20.9-13.6,41.8-20.4,62.7c-1.8,0-3.6,0-5.4,0c-0.2,0-0.5-0.3-0.6-0.5
		c-1.4-4.2-2.8-8.3-4.1-12.5c-1.8-5.4-3.5-10.9-5.3-16.3c-1.9-5.7-3.7-11.4-5.6-17.1c-0.4-1.2-0.8-2.3-1.2-3.7
		C119.5,40.7,114,57.3,108.6,74c-1.8,0-3.6,0-5.4,0c-0.2,0-0.5-0.3-0.6-0.5c-0.8-2.3-1.5-4.6-2.3-6.9c-0.8-2.3-1.5-4.7-2.3-7
		c-1.7-5.3-3.5-10.5-5.2-15.8c-1.7-5.3-3.4-10.6-5.2-15.9c-1.7-5.1-3.4-10.2-5-15.3C82.6,12.2,82.5,11.8,82.4,11.3z"/>
	<path class="st0" d="M171.7,57.8c1.7,1.1,3.3,2.3,5,3.4c2.9,1.9,6,3.3,9.2,4.6c2.9,1.1,6,1.8,9.1,2.3c1.7,0.2,3.4,0.4,5.1,0.3
		c4.2-0.1,8.2-0.7,12-2.7c2.4-1.3,4.5-3,5.8-5.4c0.7-1.3,1.1-2.7,1.2-4.2c0.1-1.5-0.1-2.8-0.6-4.1c-0.8-2.2-2.4-3.8-4.4-5
		c-2.6-1.5-5.4-2.3-8.3-2.6c-2.2-0.2-4.3-0.3-6.5-0.5c-2-0.2-4.1-0.3-6.1-0.5c-4.1-0.4-8.1-0.9-12-2.2c-3.2-1.1-6-2.7-8.2-5.3
		c-1.7-2-2.7-4.4-3-7.1c-0.4-3.7,0.6-6.9,2.6-9.9c1.5-2.3,3.7-4,6-5.3c3.1-1.8,6.4-2.9,9.9-3.3c2.9-0.3,5.8-0.5,8.7-0.3
		c6.3,0.4,12.3,2,17.9,4.7c3.2,1.5,6.2,3.3,9.1,5.4c-1.5,2.2-3.1,4.4-4.5,6.5c-2.3-1.4-4.4-2.9-6.7-4.3c-3.1-1.9-6.4-3.1-9.9-4
		c-2.4-0.6-4.9-0.9-7.4-1c-3.8-0.2-7.4,0.2-10.9,1.6c-2.4,1-4.6,2.4-5.9,4.8c-1.7,3.2-0.6,6.3,2,8.4c2.2,1.7,4.8,2.6,7.5,2.9
		c2.9,0.3,5.9,0.6,8.8,0.8c2.2,0.2,4.4,0.3,6.6,0.5c4.4,0.4,8.7,1,12.8,3c5.3,2.5,9.1,6.4,10.5,12.2c1.1,4.8,0.2,9.3-2.6,13.4
		c-1.9,2.9-4.5,5-7.5,6.6c-3.3,1.8-6.9,2.8-10.7,3.4c-1.5,0.2-3,0.3-4.6,0.3c-1.3,0.1-2.6,0.1-3.9,0c-2.4-0.2-4.7-0.4-7.1-0.6
		c-3.1-0.3-6.1-1.2-9.1-2.2c-5-1.8-9.6-4.3-13.8-7.5c-0.7-0.5-0.7-0.8-0.2-1.5c1.2-1.8,2.4-3.6,3.6-5.4
		C171.4,58.2,171.6,58,171.7,57.8z"/>
	<path class="st0" d="M287.3,47.9c-5.7,0-11.4,0-17.1,0c0-1.2,0-2.3,0-3.4c0-1.1,0-2.2,0-3.3c0-0.5,0.2-0.7,0.7-0.7
		c7.9,0,15.8,0,23.7,0c0.5,0,0.7,0.2,0.7,0.7c0,5.9,0,11.8,0,17.8c0,0.3-0.1,0.6-0.3,0.9c-1.7,2.9-3.8,5.6-6.4,7.8
		c-3.8,3.4-8.1,5.7-13.1,6.9c-2.4,0.6-4.8,0.9-7.3,1c-4.1,0.2-8.1-0.3-12-1.5c-3.8-1.2-7.4-3.1-10.5-5.7
		c-5.5-4.6-8.9-10.4-10.4-17.3c-0.4-2-0.7-4.1-0.8-6.1c-0.1-1.8-0.2-3.7,0-5.5c0.2-2.1,0.7-4.3,1.2-6.4c0.9-3.7,2.6-7.1,4.8-10.2
		c2.3-3.3,5.2-5.9,8.6-8c2.9-1.8,6.1-3.1,9.5-3.9c1.6-0.4,3.1-0.6,4.7-0.7c2-0.2,3.9-0.3,5.9-0.2c3.8,0.2,7.5,1.1,11.1,2.6
		c2.8,1.2,5.3,2.8,7.6,4.6c2.1,1.7,3.9,3.7,5.4,5.9c0.3,0.5,0.6,0.9,1,1.4c-2.2,1.6-4.4,3.1-6.5,4.7c-0.8-1.1-1.5-2.2-2.3-3.3
		c-1.2-1.7-2.7-3-4.4-4.2c-3.1-2.2-6.5-3.5-10.2-4.1c-1.3-0.2-2.7-0.4-4.1-0.3c-5.7,0.1-11,1.7-15.4,5.4c-4,3.4-6.7,7.7-7.9,12.8
		c-0.4,1.8-0.6,3.8-0.8,5.7c-0.5,5.2,0.6,10,3,14.6c2,3.8,4.9,6.8,8.5,9c2.6,1.5,5.3,2.6,8.3,3c2.7,0.4,5.4,0.5,8.1,0.1
		c2.6-0.4,5.1-1.1,7.4-2.3c3.4-1.8,6.2-4.4,8.4-7.5c0.6-0.8,0.8-1.6,0.8-2.6C287.3,53,287.3,50.5,287.3,47.9z"/>
	<path class="st0" d="M76,53c0.2-1.4,0.4-2.7,0.5-4c0.2-2.4-0.3-4.7-1.8-6.6c-1.2-1.6-2.8-2.4-4.7-2.8c-3-0.7-6-0.2-8.9,0.8
		c-4.3,1.4-8,3.8-11.4,6.7c-1.7,1.5-3.4,3-5.2,4.7c-4.9-3.3-9.5-7.7-13.5-12.9c2.3-2.2,4.6-4.4,7-6.5c2.8-2.5,5.9-4.6,9.1-6.4
		c4-2.3,8.3-4,12.9-4.8c4.1-0.7,8.1-0.6,11.9,1.4c3.3,1.7,5.3,4.3,6,8c0.8,3.6,1.1,7.2,0.9,10.9c-0.2,3.8-0.8,7.6-2.4,11.2
		C76.2,52.6,76.1,52.8,76,53z"/>
	<path class="st0" d="M26.7,32.8c-1-2-2.1-3.9-2.8-5.9c-0.9-2.5-1.6-5-2.3-7.5c-0.2-0.9-0.3-1.8-0.4-2.7c-0.2-1.1,0.2-1.8,1.1-2.5
		c2.9-2,5.7-4.1,8.7-5.9c4.3-2.6,9-4.4,14-5.4c2.3-0.4,4.6-0.5,6.9-0.4c2.6,0.1,4.9,1.2,7.1,2.5c3.5,2,6.7,4.6,9.5,7.6
		c1.9,2.1,3.6,4.3,5,6.7c0.1,0.1,0.1,0.3,0.1,0.3c-1.1-0.9-2.1-1.9-3.3-2.6c-1.8-1.2-3.9-1.9-6.1-2.1c-1.8-0.1-3.6-0.3-5.4-0.1
		c-2.7,0.2-5.4,0.9-7.9,1.8c-5.3,1.8-10.1,4.6-14.6,7.9C32.7,26.8,29.7,29.6,26.7,32.8z"/>
	<path class="st0" d="M40.8,57.9c-1.2,2.3-2.1,4.6-2.5,7.1c-0.5,3-0.4,5.9,1.5,8.5c0.5,0.6,1.1,1.2,1.6,1.9
		c-1.9-0.8-3.9-1.5-5.8-2.3c-4.4-2-8.5-4.7-12.2-7.9c-1.1-1-2.3-1.9-3.3-2.9c-0.2-0.2-0.3-0.5-0.2-0.8c0.4-2,0.7-4,1.3-6
		c1.1-3.8,3-7.3,5.3-10.7C30.6,49.9,35.3,54.2,40.8,57.9z"/>
	<path class="st0" d="M17.3,99.5c-1.1,4.4-2.1,8.9-3.2,13.3c-1.4,0-2.7,0-4,0c-0.2,0-0.6-0.4-0.7-0.7c-0.8-3-1.7-5.9-2.5-8.9
		c-1-3.7-2-7.3-3-11C4,92,3.9,91.8,3.9,91.4c1.5,0,3,0,4.4,0c0.2,0,0.4,0.3,0.4,0.5c1,4.1,2.1,8.2,3.3,12.3c0.3-1.1,0.6-2.3,0.9-3.4
		c0.8-3,1.5-5.9,2.2-8.9c0.1-0.4,0.3-0.6,0.8-0.6c1,0,2,0,3,0c0.5,0,0.8,0.2,0.9,0.7c0.8,3.2,1.5,6.3,2.3,9.5c0.2,1,0.5,2,0.9,2.9
		c0.3-1.3,0.7-2.6,1-3.9c0.8-2.9,1.5-5.9,2.3-8.8c0-0.2,0.3-0.4,0.4-0.4c1.4,0,2.9,0,4.4,0c-0.4,1.6-0.8,3-1.2,4.5
		c-1.5,5.4-3,10.8-4.5,16.3c-0.1,0.5-0.4,0.7-0.9,0.7c-1.1,0-2.1,0-3.2,0c-0.4,0-0.6-0.1-0.7-0.6c-1-4.2-2-8.5-3.1-12.7
		C17.5,99.5,17.4,99.5,17.3,99.5z"/>
	<path class="st0" d="M15.1,21c1,6.5,3.6,12.2,6.9,17.6c-3.7,5.2-6.5,10.7-7.9,17.2c-0.5-0.7-1.1-1.3-1.5-1.9
		c-3.4-4.6-6.2-9.6-8.1-15c-0.4-1,0.2-1.7,0.5-2.5c1.7-4.1,4.1-7.9,6.8-11.5C12.8,23.7,13.9,22.5,15.1,21z"/>
	<path class="st0" d="M234.9,95.2c-1.1,0.9-2.2,1.7-3.1,2.5c-1.3-0.8-2.3-1.7-3.5-2.1c-3.6-1.3-7.5,1-8.2,5c-0.5,2.7,0.1,5.1,2.1,7
		c2.4,2.2,6.3,2.2,8.6-0.2c0.9-1,1.3-1.6,1.5-2.8c-1.9,0-3.8,0-5.8,0c0-1.2,0-2.4,0-3.6c3.5,0,7,0,10.6,0c0.8,5.7-2.5,10.3-7.8,11.9
		c-5.1,1.5-11-0.7-13.2-6.3c-1.9-4.7-0.6-10.7,4.2-13.7C224.8,89.9,231.2,90.6,234.9,95.2z"/>
	<path class="st0" d="M50.5,55.4c2.3-2.6,4.8-4.7,7.7-6.4c2-1.1,4-2,6.3-2.4c2.8-0.5,5.4-0.3,7.5,2c1,1,1.4,2.3,1.5,3.7
		c0.1,1.1-0.1,2.2-0.2,3.2c0,0.3-0.2,0.6-0.5,0.8c-1.8,1.3-3.9,2.1-6.1,2.4c-4.8,0.7-9.4-0.5-13.8-2.3
		C52.2,56.2,51.4,55.8,50.5,55.4z"/>
	<path class="st0" d="M283.5,119.3c0-6.9,0-13.7,0-20.5c0-0.2,0-0.5,0-0.8c1.4,0,2.7,0,4.1,0c0,0.5,0,0.9,0,1.5
		c2.5-2.8,6.3-2.5,8.8-0.9c2,1.3,3.1,3.2,3.3,5.6c0.3,2.3-0.2,4.4-1.5,6.3c-1.2,1.7-3,2.6-5,2.8c-1.5,0.2-3,0-4.3-0.8
		c-0.5-0.3-0.9-0.7-1.4-1.1c0,1.4,0,2.7,0,3.9c0,1.3,0,2.6,0,4C286.3,119.3,284.9,119.3,283.5,119.3z M292,109.9
		c0.6,0,1.6-0.4,2.3-1.2c1.4-1.7,1.4-3.5,0.7-5.4c-0.5-1.3-1.6-2.1-3-2.2c-1.4-0.1-2.6,0.3-3.5,1.6c-0.8,1.1-1,2.3-0.9,3.6
		C287.9,108.3,289.3,110,292,109.9z"/>
	<path class="st0" d="M78.6,99.4c0-2.5,0-4.8,0-7.1c0-0.8,0.2-1,1-0.9c1,0.1,2.1,0,3.2,0c0,7.1,0,14.2,0,21.4c-1.4,0-2.7,0-4.1,0
		c0-0.5,0-1,0-1.4c-0.9,0.5-1.6,1.2-2.5,1.5c-4,1.3-8.6-0.7-9.5-5.5c-0.3-2-0.2-3.9,0.6-5.8C69.1,97.7,74.8,95.8,78.6,99.4z
		 M70.9,105.5c0,1.7,0.4,2.5,1.4,3.5c1.5,1.4,4,1.1,5.3-0.5c1.2-1.6,1.3-3.3,0.6-5c-0.8-2.3-3.3-3.2-5.3-2
		C71.5,102.4,70.9,103.8,70.9,105.5z"/>
	<path class="st0" d="M94.5,106.5c1.5,0,2.9,0,4.2,0c0.3,1.9,1,2.6,2.8,2.8c1.1,0.1,2.4-0.7,2.8-1.7c0.3-0.8-0.3-1.9-1.3-2.4
		c-1.3-0.6-2.6-1-3.9-1.6c-1.9-0.9-3.6-1.9-4.2-4.1c-1-3.7,1-7.5,5.1-8.2c1.9-0.3,3.8-0.2,5.6,0.8c1.7,0.9,2.6,2.4,3.1,4.2
		c0.1,0.4,0.1,0.9,0.2,1.4c-1.5,0-2.9,0-4.4,0c-0.1-0.2-0.2-0.5-0.2-0.7c-0.3-1.3-1.1-1.8-2.8-1.8c-1.3,0.1-2.1,0.7-2.3,1.9
		c-0.1,0.7,0.2,1.6,0.9,1.9c1.3,0.6,2.7,1.2,4.1,1.8c1.6,0.7,3.1,1.4,4.1,3c1.3,2.1,1,5.4-0.7,7.3c-1.4,1.5-3.1,2.1-5.1,2.3
		c-1.9,0.1-3.7-0.1-5.4-1.2C95.1,110.7,94.4,108.8,94.5,106.5z"/>
	<path class="st0" d="M46.7,61.4c2.3,0.8,4.5,1.6,6.6,2.4c3.2,1.1,6.5,1.3,9.8,1.1c2.5-0.2,4.8-1,6.9-2.4c0.1-0.1,0.3-0.1,0.5-0.1
		c-0.6,0.9-1.3,1.8-2,2.6c-2.7,3.2-5.8,5.8-9.6,7.5c-2.2,1-4.5,1.7-7,1.7c-3.5-0.1-6.2-2-6.6-5.7C45,65.9,45.8,63.6,46.7,61.4z"/>
	<path class="st0" d="M190.9,108.7c-1.8,4-6.2,5.6-10.3,4.1c-4.1-1.6-5.7-5.4-4.7-9.6c1-4.4,4.7-6.2,8.7-5.7
		c4.8,0.6,7.2,4.5,6.9,8.9c-3.8,0-7.6,0-11.4,0c0.2,2.3,2.5,3.7,4.8,3c0.8-0.2,1.5-0.7,2-1.4c0.1-0.1,0.3-0.4,0.5-0.3
		C188.6,108,189.7,108.4,190.9,108.7z M180.1,104c2.4,0,4.7,0,7.1,0c-0.4-2.2-2.1-3.1-4-3C181.5,101.1,180.2,102.4,180.1,104z"/>
	<path class="st0" d="M126.5,106.4c-1.9,0-3.8,0-5.7,0c-1.9,0-3.8,0-5.7,0c0.3,1.5,1.1,2.6,2.6,3c1.9,0.5,3.4-0.1,4.6-1.8
		c1.2,0.3,2.5,0.7,3.7,1c-1.4,3.3-4.7,5.1-8.5,4.5c-5.5-0.9-7.3-5.2-6.7-9.2c0.8-5,4.7-7,8.8-6.5C124.6,98.1,127,102.2,126.5,106.4z
		 M115.1,104c2.4,0,4.7,0,7.1,0c-0.3-2.1-2-3-3.8-3C116.8,101,115.5,102,115.1,104z"/>
	<path class="st0" d="M257,97.5c4.5-0.1,8.3,3.5,8,8.4c-0.2,3.9-3.5,7.6-8.5,7.4c-4.4-0.2-7.6-3.3-7.6-8
		C248.8,100.8,252,97.4,257,97.5z M253.1,105.4c0,0.2,0,0.3,0,0.5c0,1.5,0.9,2.9,2.2,3.4c1.5,0.6,3.2,0.3,4.3-0.8
		c1.3-1.3,1.5-3,0.9-4.7c-0.8-2.6-3-3-5.1-2.3C253.7,102.1,253.1,103.6,253.1,105.4z"/>
	<path class="st0" d="M39.1,97.5c4.6-0.1,8.1,3.4,8.1,8.3c-0.1,4.1-3.6,7.8-8.5,7.6c-4.2-0.2-7.8-3.3-7.6-8.2
		C31.1,100.7,34.1,97.5,39.1,97.5z M43,105.4c-0.1-1.8-0.9-3.9-3.5-4.1c-1.5-0.1-3.1,0.4-3.8,1.9c-0.5,1.1-0.6,2.1-0.4,3.3
		c0.3,1.9,2.3,3.5,4.1,3.2C41.9,109.2,42.9,107.6,43,105.4z"/>
	<path class="st0" d="M267.3,98c1.3,0,2.7,0,4.1,0c0,0.3,0,0.6,0,0.8c0,2.7,0,5.5,0,8.2c0,1.6,1.1,2.8,2.5,2.7
		c1.3,0,2.1-0.9,2.1-2.2c0-2.9,0-5.9,0-8.8c0-0.7,0.2-0.9,0.9-0.9c0.9,0.1,1.8,0,2.7,0c0.5,0,0.7,0.1,0.7,0.7c0,3,0.1,6.1,0,9.1
		c-0.1,3-1.4,4.7-4.8,5.4c-2.4,0.5-4.6,0.2-6.5-1.4c-1.2-1-1.6-2.3-1.7-3.8c-0.1-3.2,0-6.5,0-9.8C267.2,98.2,267.2,98.1,267.3,98z"
		/>
	<path class="st0" d="M192.8,108.4c1.4,0,2.6,0,3.9,0c0.2,0.4,0.3,0.8,0.5,1.1c0.5,0.8,2.2,0.9,2.8,0.1c0.5-0.6,0.3-1.5-0.4-1.9
		c-1.3-0.6-2.7-1.1-4-1.7c-2.9-1.2-3.4-4.8-1.3-7.1c0.9-1,2.2-1.4,3.4-1.5c1.6-0.2,3.3,0,4.7,0.9c1.4,0.9,1.8,2.3,1.9,4
		c-1.2,0-2.4,0-3.5,0c-0.2,0-0.5-0.3-0.5-0.5c-0.1-0.7-0.5-1.1-1.1-1.2c-0.7-0.1-1.5-0.3-2.1,0.5c-0.5,0.7,0,1.7,1.1,2
		c1,0.3,2,0.6,3,1c1.4,0.5,2.7,1.3,3.1,2.9c0.6,2.2,0,4.6-2.4,5.6c-2.5,1.1-5,1.1-7.2-0.6C193.3,111.2,192.9,109.9,192.8,108.4z"/>
	<path class="st0" d="M143.3,112.8c-1.8-4.9-3.6-9.9-5.4-14.9c1.4,0,2.7,0,4,0c0.2,0,0.4,0.3,0.5,0.6c1,2.6,2,5.3,3,8
		c0.8-2.2,1.6-4.3,2.4-6.4c0.3-0.7,0.4-1.7,0.9-2.1c0.5-0.4,1.4-0.1,2.2-0.1c0.6,0,1.2,0,2,0c-0.3,1-0.6,1.9-1,2.8
		c-1.4,3.7-2.7,7.4-4.1,11.2c-0.2,0.7-0.5,1-1.3,0.9C145.5,112.8,144.4,112.8,143.3,112.8z"/>
	<path class="st0" d="M174.9,100.1c-0.9,0.8-1.8,1.6-2.7,2.4c-2.3-1.6-4.6-1.6-5.8-0.1c-1.5,1.8-1.4,4.7,0.2,6.2
		c1.5,1.4,3.5,1.7,5.5-0.2c0.4,0.5,0.8,0.9,1.3,1.4c0.4,0.4,0.9,0.8,1.4,1.2c-3,3.3-8.8,3.2-11.7,0.1c-2.9-3.2-2.7-8.7,0.5-11.6
		C166.8,96.6,172.3,96.9,174.9,100.1z"/>
	<path class="st0" d="M18.5,72.7c-1.1-0.7-2.2-1.4-3.2-2.2c-1.4-1.1-2.7-2.2-4-3.5c-3.7-3.8-6.6-8.1-8.5-13c-0.7-1.9-0.7-4-0.6-6
		c0-1.2,0.2-2.5,0.5-3.7c0.3,0.6,0.5,1.2,0.8,1.7c1.8,4.3,4.2,8.2,7,11.9c0.9,1.1,1.9,2.2,2.7,3.3c0.3,0.4,0.5,0.9,0.5,1.3
		c0.3,3.2,1.2,6.1,3.3,8.4c0.5,0.6,1,1.1,1.6,1.7C18.6,72.7,18.5,72.7,18.5,72.7z"/>
	<path class="st0" d="M2.9,32.1c-0.5-3.2-0.5-6.1,0.5-8.9c0.7-1.9,1.8-3.8,2.9-5.5c1.8-2.9,4.1-5.5,6.7-7.8c2.1-1.9,4.5-3.6,7.2-5.1
		c-0.7,0.8-1.4,1.4-1.9,2.1c-1.7,2-2.7,4.3-3,6.9c-0.2,1.4-1,2.1-1.8,2.9c-3,3.2-5.7,6.6-7.8,10.4c-0.8,1.4-1.5,2.9-2.2,4.3
		C3.2,31.6,3.1,31.7,2.9,32.1z"/>
	<path class="st0" d="M63.9,102.1c0,3.3,0,6.5,0,9.8c0,0.8-0.2,1-1,1c-0.8-0.1-1.7,0-2.6,0c-0.6,0-0.8-0.2-0.8-0.8
		c0-2.4,0-4.7,0-7.1c0-4.2,0-8.4,0-12.6c0-0.8,0.3-1.1,1-1c0.8,0.1,1.7,0,2.5,0c0.6,0,0.8,0.2,0.8,0.8
		C63.9,95.5,63.9,98.8,63.9,102.1z"/>
	<path class="st0" d="M129.1,98c1.4,0,2.7,0,4,0c0,0.5,0,1.1,0,1.6c0.9-1.7,2.3-2.2,4.2-2c0,1.4,0,2.8,0,4.2
		c-1.8-0.2-3.2,0.4-3.8,1.9c-0.2,0.5-0.3,1.2-0.3,1.8c0,2.5,0,4.9,0,7.5c-1.4,0-2.7,0-4.1,0C129.1,107.8,129.1,102.9,129.1,98z"/>
	<path class="st0" d="M49.7,98c1.4,0,2.7,0,4.1,0c0,0.5,0,0.9,0,1.3c0.6-0.5,1.1-1.2,1.8-1.5c0.7-0.3,1.5-0.3,2.4-0.5
		c0,1.5,0,2.7,0,4c0,0.1-0.3,0.3-0.5,0.3c-1.2,0.1-2.4,0.2-3.1,1.4c-0.3,0.6-0.5,1.2-0.5,1.8c-0.1,2.3,0,4.7,0,7c0,0.3,0,0.5,0,0.8
		c-1.4,0-2.7,0-4.1,0C49.7,107.9,49.7,103,49.7,98z"/>
	<path class="st0" d="M243.8,112.8c-1.4,0-2.8,0-4.1,0c0-4.9,0-9.8,0-14.8c1.3,0,2.7,0,4.1,0c0,0.4,0,0.9,0,1.6
		c0.8-1.5,2-2.2,3.4-2.2c0.5,0,0.8,0.1,0.8,0.7c0,1,0,2,0,3c0,0.4,0,0.7-0.6,0.5c-1.7-0.3-3.5,1.2-3.5,3
		C243.8,107.3,243.8,110,243.8,112.8z"/>
	<path class="st0" d="M158.5,112.8c-1.3,0-2.4,0-3.6,0c-0.1,0-0.3,0-0.4,0c0-4.9,0-9.8,0-14.8c1.3,0,2.7,0,4.1,0
		C158.5,102.9,158.5,107.8,158.5,112.8z"/>
	<path class="st0" d="M44.4,78.2c-2.7,0.4-5.5,0.5-8.2,0.2c-2.6-0.2-5.2-0.7-7.8-1.4c-2.9-0.8-5-2.5-6.7-5c-0.8-1.2-1.5-3.1-1.6-4.1
		C27.3,73.6,34.9,78,44.4,78.2z"/>
	<path class="st0" d="M21.7,9.3c1.2-3.8,3.4-6.5,6.9-8c1.4-0.6,3-0.8,4.5-1c2.2-0.3,4.4-0.5,6.5-0.5c1.8,0,3.7,0.3,5.5,0.5
		c-1.7,0.2-3.3,0.3-5,0.6c-1.7,0.3-3.3,0.7-4.9,1.3c-1.6,0.5-3.1,1.1-4.6,1.9c-1.5,0.7-3,1.5-4.5,2.4C24.7,7.3,23.3,8.2,21.7,9.3z"
		/>
	<path class="st0" d="M158.8,93.8c0.1,1.4-1.1,2.3-2.3,2.3c-1.2,0-2.4-1.2-2.3-2.4c0.1-1.5,1.3-2.3,2.4-2.2
		C157.9,91.6,158.8,92.4,158.8,93.8z"/>
	<path class="st0" d="M0.5,32.6c0.1,1.2,0,2.4,0.3,3.7c0.4,2.1-0.3,4.1-0.5,6.2c0,0.5,0,1,0,1.6C-0.1,42.3-0.3,36,0.5,32.6z"/>
</g>
</svg>
