<?xml version="1.0" encoding="utf-8"?>
<!-- Generator: Adobe Illustrator 21.1.0, SVG Export Plug-In . SVG Version: 6.00 Build 0)  -->
<svg version="1.1" id="Layer_1" xmlns="http://www.w3.org/2000/svg" xmlns:xlink="http://www.w3.org/1999/xlink" x="0px" y="0px"
	 width="160px" height="74px" viewBox="0 0 160 74" style="enable-background:new 0 0 160 74;" xml:space="preserve">
<style type="text/css">
	.st0{fill:#FFFFFF;}
</style>
<rect x="28.9" y="50.1" class="st0" width="102.5" height="2"/>
<polygon class="st0" points="1.9,65 1.9,73.4 6.9,73.4 6.9,72.3 3.1,72.3 3.1,65 "/>
<path class="st0" d="M13.6,65h0.8l3.8,8.4h-1.2l-1.1-2.5h-3.6l-1,2.5H10L13.6,65z M15.3,69.8l-1.4-3l-1.3,3H15.3z"/>
<polygon class="st0" points="31.7,65 32.9,65 29.5,73.4 29.3,73.4 26.5,66.6 23.8,73.4 23.5,73.4 20.1,65 21.3,65 23.6,70.8 26,65 
	27.1,65 29.4,70.8 "/>
<path class="st0" d="M50.4,71.5v1.3c-0.9,0.5-1.9,0.7-3,0.7c-0.9,0-1.7-0.2-2.4-0.6c-0.7-0.4-1.2-0.9-1.5-1.6
	c-0.4-0.7-0.6-1.4-0.6-2.1c0-1.2,0.4-2.2,1.3-3.1c0.9-0.8,1.9-1.2,3.2-1.2c0.9,0,1.9,0.2,2.9,0.7v1.3c-1-0.6-1.9-0.8-2.9-0.8
	c-1,0-1.8,0.3-2.4,0.9c-0.6,0.6-1,1.4-1,2.3c0,0.9,0.3,1.7,0.9,2.3c0.6,0.6,1.4,0.9,2.4,0.9C48.4,72.4,49.4,72.1,50.4,71.5"/>
<path class="st0" d="M58.9,64.9c1.3,0,2.4,0.4,3.2,1.2c0.9,0.8,1.3,1.9,1.3,3.1c0,1.2-0.4,2.3-1.3,3.1c-0.9,0.8-2,1.2-3.3,1.2
	c-1.3,0-2.3-0.4-3.2-1.2c-0.8-0.8-1.3-1.8-1.3-3c0-1.3,0.4-2.3,1.3-3.1C56.6,65.3,57.6,64.9,58.9,64.9 M59,66c-1,0-1.7,0.3-2.4,0.9
	c-0.6,0.6-0.9,1.4-0.9,2.3c0,0.9,0.3,1.7,0.9,2.3c0.6,0.6,1.4,0.9,2.3,0.9c0.9,0,1.7-0.3,2.3-0.9c0.6-0.6,0.9-1.4,0.9-2.3
	c0-0.9-0.3-1.6-0.9-2.2C60.7,66.3,59.9,66,59,66"/>
<path class="st0" d="M67.9,73.4V65H70c0.9,0,1.5,0.2,2,0.6c0.5,0.4,0.7,1,0.7,1.7c0,0.5-0.1,0.9-0.4,1.3c-0.2,0.4-0.6,0.6-1,0.8
	c0.3,0.2,0.5,0.4,0.8,0.7c0.3,0.3,0.6,0.8,1.1,1.6c0.3,0.5,0.5,0.8,0.7,1.1l0.4,0.6H73l-0.4-0.6c0,0,0-0.1-0.1-0.1l-0.2-0.3
	l-0.4-0.6l-0.4-0.7c-0.2-0.3-0.5-0.6-0.7-0.8c-0.2-0.2-0.4-0.4-0.6-0.4c-0.2-0.1-0.4-0.1-0.8-0.1h-0.3v3.7H67.9z M69.5,66h-0.4v2.7
	h0.5c0.6,0,1-0.1,1.3-0.2c0.2-0.1,0.4-0.3,0.5-0.5c0.1-0.2,0.2-0.4,0.2-0.7c0-0.3-0.1-0.5-0.2-0.7c-0.1-0.2-0.3-0.4-0.6-0.5
	C70.5,66.1,70.1,66,69.5,66"/>
<path class="st0" d="M78.2,73.4V65h2.7c0.8,0,1.4,0.2,1.9,0.6c0.5,0.4,0.7,1,0.7,1.7c0,0.5-0.1,0.9-0.4,1.3c-0.2,0.4-0.6,0.6-1,0.8
	c-0.4,0.2-1,0.3-1.8,0.3h-0.9v3.6H78.2z M80.6,66.1h-1.2v2.6h1.3c0.5,0,0.9-0.1,1.1-0.3c0.3-0.2,0.4-0.6,0.4-1
	C82.2,66.5,81.7,66.1,80.6,66.1"/>
<path class="st0" d="M91.6,64.9c1.3,0,2.4,0.4,3.2,1.2c0.9,0.8,1.3,1.9,1.3,3.1c0,1.2-0.4,2.3-1.3,3.1c-0.9,0.8-2,1.2-3.3,1.2
	c-1.3,0-2.3-0.4-3.2-1.2c-0.8-0.8-1.3-1.8-1.3-3c0-1.3,0.4-2.3,1.3-3.1C89.2,65.3,90.3,64.9,91.6,64.9 M91.6,66
	c-1,0-1.8,0.3-2.4,0.9c-0.6,0.6-0.9,1.4-0.9,2.3c0,0.9,0.3,1.7,0.9,2.3c0.6,0.6,1.4,0.9,2.3,0.9c0.9,0,1.7-0.3,2.3-0.9
	c0.6-0.6,0.9-1.4,0.9-2.3c0-0.9-0.3-1.6-0.9-2.2C93.3,66.3,92.5,66,91.6,66"/>
<path class="st0" d="M100.6,73.4V65h2.1c0.9,0,1.5,0.2,2,0.6c0.5,0.4,0.8,1,0.8,1.7c0,0.5-0.1,0.9-0.4,1.3c-0.2,0.4-0.6,0.6-1,0.8
	c0.3,0.2,0.5,0.4,0.8,0.7c0.3,0.3,0.6,0.8,1.1,1.6c0.3,0.5,0.5,0.8,0.7,1.1l0.4,0.6h-1.4l-0.4-0.6c0,0,0-0.1-0.1-0.1l-0.2-0.3
	l-0.4-0.6l-0.4-0.7c-0.2-0.3-0.5-0.6-0.7-0.8c-0.2-0.2-0.4-0.4-0.6-0.4c-0.2-0.1-0.4-0.1-0.8-0.1h-0.3v3.7H100.6z M102.1,66h-0.4
	v2.7h0.5c0.6,0,1-0.1,1.3-0.2c0.2-0.1,0.4-0.3,0.5-0.5c0.1-0.2,0.2-0.4,0.2-0.7c0-0.3-0.1-0.5-0.2-0.7c-0.1-0.2-0.3-0.4-0.6-0.5
	C103.1,66.1,102.7,66,102.1,66"/>
<path class="st0" d="M113.6,65h0.8l3.8,8.4H117l-1.1-2.5h-3.6l-1,2.5H110L113.6,65z M115.4,69.8l-1.4-3l-1.3,3H115.4z"/>
<polygon class="st0" points="120.1,65 127.1,65 127.1,66.1 124.2,66.1 124.2,73.4 123,73.4 123,66.1 120.1,66.1 "/>
<rect x="131.2" y="65" class="st0" width="1.2" height="8.4"/>
<path class="st0" d="M141.3,64.9c1.3,0,2.4,0.4,3.2,1.2c0.9,0.8,1.3,1.9,1.3,3.1c0,1.2-0.4,2.3-1.3,3.1c-0.9,0.8-2,1.2-3.3,1.2
	c-1.3,0-2.3-0.4-3.2-1.2c-0.8-0.8-1.3-1.8-1.3-3c0-1.3,0.4-2.3,1.3-3.1C139,65.3,140,64.9,141.3,64.9 M141.4,66
	c-1,0-1.8,0.3-2.4,0.9c-0.6,0.6-0.9,1.4-0.9,2.3c0,0.9,0.3,1.7,0.9,2.3c0.6,0.6,1.4,0.9,2.3,0.9c0.9,0,1.7-0.3,2.3-0.9
	c0.6-0.6,0.9-1.4,0.9-2.3c0-0.9-0.3-1.6-0.9-2.2C143.1,66.3,142.3,66,141.4,66"/>
<polygon class="st0" points="157,65 158.1,65 158.1,73.4 157.1,73.4 151.5,66.9 151.5,73.4 150.3,73.4 150.3,65 151.3,65 157,71.5 
	"/>
<path class="st0" d="M92.1,37v-0.5c-3.2,0-3.5-4.2-3.6-6.4c-0.1-4,0-8,0-12l0-1.2c0-4.2,0.1-8.4,0.1-12.6c2.1,5,4.1,10.1,6.2,15.1
	c1.2,3,2.4,5.9,3.6,8.9c0.4,0.9,2.7,8,3.4,7.8c1.6-5.3,4.1-10.5,6.2-15.7c2.3-5.6,4.7-11.3,7-16.9v14.1l0,0.5c0,4,0,8,0,12
	c0,2.2-0.4,6.4-3.6,6.4V37h10.6v-0.5c-3.2,0-3.5-4.2-3.6-6.4c-0.1-4,0-8,0-12c0-3.9-0.1-7.8,0.2-11.7c0.1-1.3,0.3-2.3,1-3.4
	c0.4-0.5,0.9-1.1,1.5-1.4c0.4-0.2,0.7-0.1,0.6-0.6h-6.9c-3.4,9.7-7.7,19.1-11.7,28.6c-3.9-9.5-7.8-19-11.7-28.6h-6.9v0.5
	c1,0,2,1.5,2.4,2.3c0.8,1.3,0.7,3,0.7,4.5c0,2.9,0,5.7,0,8.6l0,1.2c0,4,0,8,0,12c0,2.2-0.4,6.4-3.6,6.4V37H92.1z"/>
<path class="st0" d="M24.9,37v-0.5c-3.2,0-3.5-4.2-3.6-6.4c-0.1-4,0-8,0-12l0-13.6V2.4c0-0.2,4.6-0.1,5-0.1c2.1,0.1,4.2-0.1,5.8,1.4
	c1.5,1.3,3.5,3.6,4.1,5.5l0.4-0.1c-0.4-2.8-0.8-5.5-1.2-8.3C30.3,2,26.1,1.5,20.9,1.5h-2.6C13,1.5,8.8,2,3.6,0.8
	C3.2,3.6,2.8,6.3,2.4,9.1l0.4,0.1C3.4,7.3,5.4,5,6.9,3.7c1.7-1.4,3.8-1.3,5.8-1.4c0.4,0,5-0.1,5,0.1v2.1l0,13.6c0,4,0,8,0,12
	c0,2.2-0.4,6.4-3.6,6.4V37H24.9z"/>
<path class="st0" d="M157.5,14.8c-1.1,2.9-3.5,5.1-6.4,6.1c-3.2,1.1-5.3,1.1-8.7,1.1c-0.5,0-0.4,0-0.4,0.5v1.2V26
	c0,1.6,0,3.2,0.1,4.8c0,1.2-0.1,2.7,0.7,3.8c0.6,0.9,1.7,1.8,2.8,1.9v0.5h-10.3v-0.5c0,0,0.6-0.3,0.7-0.3c0.6-0.3,1.1-0.8,1.5-1.3
	c0.5-0.5,0.6-1.3,0.7-2c0.1-1,0.2-1.9,0.2-2.9c0.1-3.7,0.1-7.4,0.1-11.1v-7.7c0-1.2,0-2.4,0-3.6c0-1.2,0.1-2.7-0.4-3.8
	c-0.5-1.2-1.7-2-3-2.2V1.1c0-0.1,0.6,0,0.7,0c0.5,0,0.9,0,1.4,0c1,0,2,0,3.1,0c2.1,0,2.7-0.1,4.8,0c3.7,0.1,7.6,0.6,10.3,3.4
	C157.9,7.1,158.8,11.2,157.5,14.8 M153.2,6c-0.9-1.5-2.1-2.6-3.5-3.4c-0.7-0.4-1.5-0.6-2.3-0.7c-0.8-0.1-1.7-0.2-2.6-0.2
	c-0.6,0-1.1,0-1.5,0.1c-0.3,0.1-0.6,0.1-0.8,0.1c0,0.2-0.1,0.4-0.1,0.5c0,0.2-0.1,0.3-0.1,0.6c0,0.2-0.1,0.6-0.1,1
	c0,0.4-0.1,1-0.1,1.8c0,1.2-0.1,2.6-0.1,4.2c0,1.7,0,3.3,0,4.9v4.2v2.2c1.2,0,2.4,0,3.5-0.1c1.1-0.1,2.1-0.3,3.1-0.7
	c2-0.7,3.4-1.9,4.5-3.6c1-1.7,1.6-3.6,1.6-5.7C154.5,9.2,154.1,7.5,153.2,6"/>
<path class="st0" d="M70.2,31.4c-2,4.2-6.4,5.8-10.8,5.9c-2.2,0-4.4-0.2-6.4-0.9c-0.9-0.3-1.6-0.8-2.4-1.2c-0.5-0.2-1.4,1.3-1.6,1.7
	h-0.4l0-7.8c0.4,0,0.4-0.1,0.6,0.3c0.1,0.3,0.2,0.5,0.3,0.8c0.3,0.8,0.6,1.5,1.1,2.2c1.5,2.1,3.8,3.5,6.3,3.9
	c3.4,0.6,8.1-0.2,9.8-3.6c0.8-1.6,1-3.7,0.6-5.5c-0.5-2-2.1-4-3.9-4.9c-1.8-0.9-4.4-1.5-6.3-2.2c-1.9-0.7-3.8-1.4-5.3-2.9
	c-3-2.9-3.9-6.7-2.3-10.6c1.6-3.9,5.4-5.9,9.5-6.2c2-0.1,4.1,0.1,6,0.9C65.6,1.7,66.4,2,67,2.5c0.1,0.1,0.4,0.4,0.6,0.4
	c0.3-0.2,0.6-0.7,0.8-1c0.2-0.3,0.4-0.5,0.5-0.8h0.5v7.1c-0.4,0-0.5,0.1-0.6-0.3c-0.1-0.3-0.3-0.6-0.4-1c-0.5-0.9-1.1-1.8-1.8-2.5
	c-2.1-2.2-5.8-3.4-8.9-3c-4.2,0.6-6.4,4.8-5.4,8.8c1,4.1,6.7,6,10.1,7.3c2.9,1.1,5.8,2.3,7.5,5.2C71.4,25.4,71.5,28.5,70.2,31.4"/>
</svg>
