<?xml version="1.0" encoding="utf-8"?>
<!-- Generator: Adobe Illustrator 21.1.0, SVG Export Plug-In . SVG Version: 6.00 Build 0)  -->
<svg version="1.1" id="Layer_1" xmlns="http://www.w3.org/2000/svg" xmlns:xlink="http://www.w3.org/1999/xlink" x="0px" y="0px"
	 width="137px" height="33px" viewBox="0 0 137 33" style="enable-background:new 0 0 137 33;" xml:space="preserve">
<style type="text/css">
	.st0{fill:#FFFFFF;}
</style>
<g>
	<path class="st0" d="M78.8,32.3v-0.4c-2.8,0-3.1-3.7-3.1-5.6c0-3.5,0-7,0-10.4l0-1.1c0-3.7,0.1-7.3,0.1-11
		c1.8,4.4,3.6,8.8,5.4,13.2c1,2.6,2.1,5.2,3.1,7.7c0.3,0.8,2.4,6.9,2.9,6.8c1.4-4.7,3.6-9.2,5.5-13.7c2-4.9,4.1-9.9,6.1-14.8v12.3
		l0,0.5c0,3.5,0,7,0,10.4c0,1.9-0.3,5.6-3.1,5.6v0.4h9.3v-0.4c-2.8,0-3.1-3.7-3.1-5.6c0-3.5,0-7,0-10.4c0-3.4-0.1-6.8,0.2-10.2
		c0.1-1.1,0.2-2,0.9-2.9c0.3-0.5,0.8-1,1.3-1.2c0.3-0.2,0.7-0.1,0.5-0.6h-6c-3,8.5-6.8,16.7-10.3,25c-3.4-8.3-6.8-16.6-10.2-25h-6
		v0.4c0.9,0,1.7,1.3,2.1,2C75.1,4.5,75,6,75,7.3c0,2.5,0,5,0,7.5l0,1.1c0,3.5,0,7,0,10.4c0,1.9-0.3,5.6-3.1,5.6v0.4H78.8z"/>
	<path class="st0" d="M20.2,32.3v-0.4c-2.8,0-3.1-3.7-3.1-5.6c0-3.5,0-7,0-10.5L17,4V2.1c0-0.2,4-0.1,4.4-0.1c1.8,0.1,3.6,0,5.1,1.2
		c1.3,1.1,3.1,3.1,3.6,4.8l0.4-0.1c-0.4-2.4-0.7-4.8-1.1-7.2c-4.5,1.1-8.2,0.6-12.8,0.6h-2.3C9.7,1.3,6,1.8,1.6,0.7
		C1.2,3.1,0.9,5.5,0.5,7.9l0.4,0.1c0.5-1.7,2.3-3.7,3.6-4.8C5.9,2,7.7,2.1,9.5,2.1c0.4,0,4.4-0.1,4.4,0.1V4l0,11.9c0,3.5,0,7,0,10.5
		c0,1.9-0.3,5.6-3.1,5.6v0.4H20.2z"/>
	<path class="st0" d="M136,12.9c-0.9,2.6-3,4.4-5.6,5.3c-2.8,1-4.7,0.9-7.6,0.9c-0.4,0-0.4,0-0.4,0.5v1v2c0,1.4,0,2.8,0.1,4.2
		c0,1.1-0.1,2.4,0.6,3.3c0.5,0.7,1.5,1.6,2.5,1.7v0.4h-9v-0.4c0,0,0.5-0.3,0.6-0.3c0.5-0.3,0.9-0.7,1.3-1.1c0.4-0.5,0.5-1.1,0.6-1.7
		c0.1-0.8,0.2-1.7,0.2-2.5c0.1-3.2,0.1-6.5,0.1-9.7V9.7c0-1,0-2.1,0-3.1c0-1,0.1-2.4-0.3-3.3c-0.4-1.1-1.5-1.8-2.6-1.9V0.9
		c0-0.1,0.6,0,0.6,0c0.4,0,0.8,0,1.2,0c0.9,0,1.8,0,2.7,0c1.8,0,2.4-0.1,4.2,0c3.3,0.1,6.6,0.5,9,3C136.3,6.2,137.1,9.8,136,12.9
		 M132.2,5.3c-0.8-1.3-1.8-2.3-3.1-3c-0.6-0.3-1.3-0.5-2-0.7c-0.7-0.1-1.5-0.2-2.2-0.2c-0.6,0-1,0-1.3,0.1c-0.3,0-0.6,0.1-0.7,0.1
		c0,0.2-0.1,0.3-0.1,0.5c0,0.1-0.1,0.3-0.1,0.5c0,0.2-0.1,0.5-0.1,0.8c0,0.4-0.1,0.9-0.1,1.5c0,1,0,2.3-0.1,3.7c0,1.5,0,2.9,0,4.3
		v3.7v1.9c1.1,0,2.1,0,3.1-0.1c1-0.1,1.8-0.3,2.7-0.6c1.7-0.6,3-1.7,3.9-3.2c0.9-1.5,1.4-3.1,1.4-4.9C133.4,8.1,133,6.6,132.2,5.3"
		/>
	<path class="st0" d="M59.7,27.4c-1.7,3.7-5.6,5.1-9.4,5.1c-1.9,0-3.8-0.1-5.6-0.8c-0.8-0.3-1.4-0.7-2.1-1.1
		c-0.5-0.2-1.2,1.2-1.4,1.5h-0.4l0-6.8c0.3,0,0.4-0.1,0.5,0.2c0.1,0.2,0.2,0.5,0.3,0.7c0.3,0.7,0.5,1.4,1,2c1.3,1.8,3.3,3,5.5,3.4
		c3,0.5,7.1-0.2,8.5-3.2c0.7-1.4,0.9-3.3,0.5-4.8c-0.5-1.8-1.8-3.5-3.4-4.3c-1.6-0.8-3.9-1.3-5.5-1.9c-1.7-0.6-3.3-1.3-4.6-2.5
		c-2.6-2.5-3.4-5.9-2-9.2c1.4-3.4,4.7-5.2,8.3-5.4c1.8-0.1,3.6,0.1,5.2,0.8c0.7,0.2,1.3,0.6,1.9,1c0.1,0.1,0.4,0.4,0.5,0.3
		c0.3-0.2,0.5-0.6,0.7-0.9c0.2-0.2,0.3-0.5,0.5-0.7h0.4v6.2c-0.3,0-0.4,0.1-0.5-0.2c-0.1-0.3-0.2-0.6-0.4-0.8
		c-0.4-0.8-1-1.6-1.6-2.2c-1.8-2-5.1-3-7.8-2.6c-3.7,0.6-5.6,4.2-4.7,7.7c0.9,3.6,5.8,5.3,8.8,6.4c2.6,0.9,5.1,2,6.5,4.5
		C60.8,22.2,60.9,24.9,59.7,27.4"/>
</g>
</svg>
